<svg width="131" height="121" viewBox="0 0 131 121" fill="none" xmlns="http://www.w3.org/2000/svg">
<g filter="url(#filter0_d_313_137)">
<path d="M73.1111 5.38885C73.1111 5.38885 73.1111 -4.00543e-05 78.5 -4.00543e-05C83.8889 -4.00543e-05 83.8889 5.38885 83.8889 5.38885V10.7777C83.8889 10.7777 83.8889 16.1666 78.5 16.1666C73.1111 16.1666 73.1111 10.7777 73.1111 10.7777V5.38885Z" fill="#FFAC33"/>
<path d="M121.611 43.1111C121.611 43.1111 127 43.1111 127 48.5C127 53.8889 121.611 53.8889 121.611 53.8889H116.222C116.222 53.8889 110.833 53.8889 110.833 48.5C110.833 43.1111 116.222 43.1111 116.222 43.1111H121.611Z" fill="#FFAC33"/>
<path d="M40.7778 43.1111C40.7778 43.1111 46.1667 43.1111 46.1667 48.5C46.1667 53.8889 40.7778 53.8889 40.7778 53.8889H35.3889C35.3889 53.8889 30 53.8889 30 48.5C30 43.1111 35.3889 43.1111 35.3889 43.1111H40.7778Z" fill="#FFAC33"/>
<path d="M54.576 19.6534C54.576 19.6534 58.386 23.4633 54.576 27.2732C50.7661 31.0832 46.9561 27.2732 46.9561 27.2732L43.1435 23.4633C43.1435 23.4633 39.3336 19.6534 43.1435 15.8407C46.9561 12.0308 50.7661 15.8407 50.7661 15.8407L54.576 19.6534Z" fill="#FFAC33"/>
<path d="M111.159 76.2338C111.159 76.2338 114.969 80.0437 111.159 83.8537C107.349 87.6636 103.539 83.8537 103.539 83.8537L99.7295 80.0437C99.7295 80.0437 95.9196 76.2338 99.7295 72.4239C103.539 68.6139 107.349 72.4239 107.349 72.4239L111.159 76.2338Z" fill="#FFAC33"/>
<path d="M110.047 27.2704C110.047 27.2704 106.237 31.0804 102.427 27.2704C98.6167 23.4605 102.427 19.6505 102.427 19.6505L106.237 15.8406C106.237 15.8406 110.047 12.0307 113.856 15.8406C117.666 19.6505 113.856 23.4605 113.856 23.4605L110.047 27.2704Z" fill="#FFAC33"/>
<path d="M53.4632 83.8537C53.4632 83.8537 49.6533 87.6636 45.8433 83.8537C42.0334 80.0437 45.8433 76.2338 45.8433 76.2338L49.6533 72.4239C49.6533 72.4239 53.4632 68.6139 57.2732 72.4239C61.0831 76.2338 57.2732 80.0437 57.2732 80.0437L53.4632 83.8537Z" fill="#FFAC33"/>
<path d="M73.1111 86.2222C73.1111 86.2222 73.1111 80.8333 78.5 80.8333C83.8889 80.8333 83.8889 86.2222 83.8889 86.2222V91.6111C83.8889 91.6111 83.8889 97 78.5 97C73.1111 97 73.1111 91.6111 73.1111 91.6111V86.2222Z" fill="#FFAC33"/>
<path d="M105.444 48.5C105.444 33.6186 93.3787 21.5556 78.5 21.5556C63.6186 21.5556 51.5556 33.6186 51.5556 48.5C51.5556 63.3787 63.6186 75.4445 78.5 75.4445C93.3787 75.4445 105.444 63.3787 105.444 48.5Z" fill="#FFAC33"/>
</g>
<g filter="url(#filter1_d_313_137)">
<path d="M90.9235 61.531C90.9384 61.3318 90.9459 61.1335 90.946 60.9359C90.9453 58.8338 90.109 56.8109 88.6075 55.2792C87.106 53.7476 85.0522 52.8222 82.8641 52.6915C81.8008 50.0062 79.9571 47.6694 77.5513 45.958C75.1456 44.2466 72.2786 43.2324 69.2901 43.0354C66.3016 42.8384 63.3169 43.4669 60.6895 44.8466C58.0621 46.2262 55.9023 48.299 54.4658 50.8196C54.0045 50.7686 53.5405 50.7426 53.0762 50.7417C51.2182 50.7359 49.3821 51.1257 47.7003 51.883C46.0186 52.6404 44.5331 53.7463 43.3513 55.121C43.1594 55.3445 43.0402 55.6171 43.0085 55.905C42.9768 56.1929 43.0341 56.4834 43.1731 56.7404C43.3122 56.9974 43.5269 57.2095 43.7907 57.3505C44.0544 57.4914 44.3555 57.5549 44.6566 57.5332C44.8191 57.5216 44.9929 57.5224 45.1568 57.5231C49.0062 57.5308 52.7721 58.5992 56.0061 60.6011C59.2401 62.603 61.8058 65.454 63.3978 68.8145C63.5424 69.1203 63.7913 69.3696 64.1035 69.5216C64.4157 69.6736 64.7725 69.719 65.1152 69.6506C67.8121 69.1139 70.6096 69.279 73.2174 70.1287C75.8253 70.9785 78.1485 72.4818 79.946 74.4829C80.0907 74.6451 80.2702 74.7754 80.4724 74.8646C80.6745 74.9539 80.8944 75.0001 81.117 75H93.3656C93.6346 75 93.8989 74.9325 94.1322 74.8042C94.3656 74.6759 94.5598 74.4912 94.6956 74.2686C95.549 72.8676 95.9992 71.2745 96 69.652C95.9924 67.986 95.517 66.3527 94.6238 64.9237C93.7305 63.4947 92.4523 62.3227 90.9235 61.531Z" fill="#7CC9F2"/>
</g>
<g filter="url(#filter2_d_313_137)">
<path d="M86.7649 84.4841C86.472 79.8179 84.4099 75.4386 80.9983 72.237C77.5866 69.0354 73.0816 67.2521 68.4 67.25C67.5387 67.25 66.6784 67.3094 65.8252 67.4279C63.8841 63.6893 60.9536 60.5538 57.3523 58.3626C53.7511 56.1713 49.6171 55.0083 45.4 55C45.1634 55 44.9081 55.0015 44.745 55.0153C40.0998 55.1325 35.6003 56.6589 31.8448 59.3915C28.0893 62.1242 25.2557 65.9337 23.7207 70.3136C20.5058 70.3732 17.4426 71.6894 15.1888 73.9797C12.935 76.2699 11.6704 79.3514 11.6667 82.5625C11.6669 83.0312 11.6944 83.4996 11.749 83.9651C9.43351 85.106 7.48198 86.8685 6.11328 89.0549C4.74458 91.2413 4.01281 93.7653 4.00003 96.3437C3.99465 98.77 4.63994 101.153 5.86886 103.246C6.00422 103.476 6.19727 103.666 6.4289 103.798C6.66054 103.931 6.92273 104 7.18952 104H24.4854C24.8506 104 25.2039 103.87 25.4816 103.633C25.7592 103.396 25.9431 103.068 26 102.707C26.4425 99.9173 27.8673 97.3766 30.0182 95.5421C32.1691 93.7076 34.9049 92.6997 37.7335 92.6997C40.5621 92.6997 43.2979 93.7076 45.4488 95.5421C47.5997 97.3766 49.0245 99.9173 49.467 102.707C49.5239 103.068 49.7078 103.396 49.9854 103.633C50.2631 103.87 50.6164 104 50.9817 104H92.535C92.7816 104 93.0246 103.941 93.2434 103.827C93.4621 103.713 93.6501 103.548 93.7914 103.346C95.2324 101.295 96.0038 98.8495 96 96.3437C95.9898 93.6256 95.078 90.9874 93.4071 88.8416C91.7362 86.6958 89.4004 85.1635 86.7649 84.4841Z" fill="#9CD5F2"/>
</g>
<g filter="url(#filter3_d_313_137)">
<path d="M58.1754 97.6933C58.1406 97.0654 58.0728 96.4396 57.9721 95.8183C57.2947 91.687 55.1121 87.9246 51.817 85.2081C48.522 82.4917 44.3308 80.9995 39.9975 81C35.6643 81.0005 31.4735 82.4938 28.1792 85.2111C24.8849 87.9284 22.7033 91.6913 22.027 95.8228C21.927 96.4426 21.8595 97.0669 21.8246 97.6933C18.9475 98.6965 16.4605 100.531 14.7025 102.948C12.9445 105.364 12.0008 108.245 12 111.198C12 111.676 12.1967 112.134 12.5467 112.472C12.8968 112.81 13.3716 113 13.8667 113H66.1333C66.6284 113 67.1032 112.81 67.4533 112.472C67.8033 112.134 68 111.676 68 111.198C67.9992 108.245 67.0555 105.364 65.2975 102.948C63.5395 100.531 61.0525 98.6965 58.1754 97.6933Z" fill="#B2EBF2"/>
</g>
<defs>
<filter id="filter0_d_313_137" x="26" y="0" width="105" height="105" filterUnits="userSpaceOnUse" color-interpolation-filters="sRGB">
<feFlood flood-opacity="0" result="BackgroundImageFix"/>
<feColorMatrix in="SourceAlpha" type="matrix" values="0 0 0 0 0 0 0 0 0 0 0 0 0 0 0 0 0 0 127 0" result="hardAlpha"/>
<feOffset dy="4"/>
<feGaussianBlur stdDeviation="2"/>
<feComposite in2="hardAlpha" operator="out"/>
<feColorMatrix type="matrix" values="0 0 0 0 0 0 0 0 0 0 0 0 0 0 0 0 0 0 0.25 0"/>
<feBlend mode="normal" in2="BackgroundImageFix" result="effect1_dropShadow_313_137"/>
<feBlend mode="normal" in="SourceGraphic" in2="effect1_dropShadow_313_137" result="shape"/>
</filter>
<filter id="filter1_d_313_137" x="39" y="43" width="61" height="40" filterUnits="userSpaceOnUse" color-interpolation-filters="sRGB">
<feFlood flood-opacity="0" result="BackgroundImageFix"/>
<feColorMatrix in="SourceAlpha" type="matrix" values="0 0 0 0 0 0 0 0 0 0 0 0 0 0 0 0 0 0 127 0" result="hardAlpha"/>
<feOffset dy="4"/>
<feGaussianBlur stdDeviation="2"/>
<feComposite in2="hardAlpha" operator="out"/>
<feColorMatrix type="matrix" values="0 0 0 0 0 0 0 0 0 0 0 0 0 0 0 0 0 0 0.25 0"/>
<feBlend mode="normal" in2="BackgroundImageFix" result="effect1_dropShadow_313_137"/>
<feBlend mode="normal" in="SourceGraphic" in2="effect1_dropShadow_313_137" result="shape"/>
</filter>
<filter id="filter2_d_313_137" x="0" y="55" width="100" height="57" filterUnits="userSpaceOnUse" color-interpolation-filters="sRGB">
<feFlood flood-opacity="0" result="BackgroundImageFix"/>
<feColorMatrix in="SourceAlpha" type="matrix" values="0 0 0 0 0 0 0 0 0 0 0 0 0 0 0 0 0 0 127 0" result="hardAlpha"/>
<feOffset dy="4"/>
<feGaussianBlur stdDeviation="2"/>
<feComposite in2="hardAlpha" operator="out"/>
<feColorMatrix type="matrix" values="0 0 0 0 0 0 0 0 0 0 0 0 0 0 0 0 0 0 0.25 0"/>
<feBlend mode="normal" in2="BackgroundImageFix" result="effect1_dropShadow_313_137"/>
<feBlend mode="normal" in="SourceGraphic" in2="effect1_dropShadow_313_137" result="shape"/>
</filter>
<filter id="filter3_d_313_137" x="8" y="81" width="64" height="40" filterUnits="userSpaceOnUse" color-interpolation-filters="sRGB">
<feFlood flood-opacity="0" result="BackgroundImageFix"/>
<feColorMatrix in="SourceAlpha" type="matrix" values="0 0 0 0 0 0 0 0 0 0 0 0 0 0 0 0 0 0 127 0" result="hardAlpha"/>
<feOffset dy="4"/>
<feGaussianBlur stdDeviation="2"/>
<feComposite in2="hardAlpha" operator="out"/>
<feColorMatrix type="matrix" values="0 0 0 0 0 0 0 0 0 0 0 0 0 0 0 0 0 0 0.25 0"/>
<feBlend mode="normal" in2="BackgroundImageFix" result="effect1_dropShadow_313_137"/>
<feBlend mode="normal" in="SourceGraphic" in2="effect1_dropShadow_313_137" result="shape"/>
</filter>
</defs>
</svg>
